<mxfile host="Electron" modified="2024-06-12T08:04:01.243Z" agent="Mozilla/5.0 (Windows NT 10.0; Win64; x64) AppleWebKit/537.36 (KHTML, like Gecko) draw.io/24.5.3 Chrome/124.0.6367.207 Electron/30.0.6 Safari/537.36" etag="dwZHJIV1J7Cm2xotE9jU" version="24.5.3" type="device">
  <diagram name="第 1 页" id="3ONKhqnSoZWwN-SFh55r">
    <mxGraphModel dx="1434" dy="836" grid="1" gridSize="10" guides="1" tooltips="1" connect="1" arrows="1" fold="1" page="1" pageScale="1" pageWidth="1169" pageHeight="827" math="0" shadow="0">
      <root>
        <mxCell id="0" />
        <mxCell id="1" parent="0" />
        <mxCell id="-MM3WiBiCca5OCZPj5n1-43" value="" style="rounded=0;whiteSpace=wrap;html=1;fillColor=none;strokeWidth=3;" vertex="1" parent="1">
          <mxGeometry x="430" y="50" width="320" height="320" as="geometry" />
        </mxCell>
        <mxCell id="-MM3WiBiCca5OCZPj5n1-42" value="" style="rounded=0;whiteSpace=wrap;html=1;fillColor=none;strokeWidth=3;" vertex="1" parent="1">
          <mxGeometry x="20" y="160" width="400" height="650" as="geometry" />
        </mxCell>
        <mxCell id="-MM3WiBiCca5OCZPj5n1-1" value="Robot Left Arm ESP32" style="rounded=0;whiteSpace=wrap;html=1;fillColor=#f5f5f5;fontColor=#333333;strokeColor=#666666;" vertex="1" parent="1">
          <mxGeometry x="40" y="574" width="160" height="40" as="geometry" />
        </mxCell>
        <mxCell id="-MM3WiBiCca5OCZPj5n1-2" value="Robot Right Arm ESP32" style="rounded=0;whiteSpace=wrap;html=1;fillColor=#f5f5f5;fontColor=#333333;strokeColor=#666666;" vertex="1" parent="1">
          <mxGeometry x="240" y="574" width="160" height="40" as="geometry" />
        </mxCell>
        <mxCell id="-MM3WiBiCca5OCZPj5n1-3" value="arm_writer.py" style="rounded=0;whiteSpace=wrap;html=1;fillColor=#1ba1e2;fontColor=#ffffff;strokeColor=#006EAF;" vertex="1" parent="1">
          <mxGeometry x="160" y="480" width="120" height="60" as="geometry" />
        </mxCell>
        <mxCell id="-MM3WiBiCca5OCZPj5n1-4" value="" style="endArrow=classic;html=1;rounded=0;entryX=0.5;entryY=0;entryDx=0;entryDy=0;exitX=0.25;exitY=1;exitDx=0;exitDy=0;endFill=1;strokeWidth=3;" edge="1" parent="1" source="-MM3WiBiCca5OCZPj5n1-3" target="-MM3WiBiCca5OCZPj5n1-1">
          <mxGeometry width="50" height="50" relative="1" as="geometry">
            <mxPoint x="516" y="670" as="sourcePoint" />
            <mxPoint x="566" y="620" as="targetPoint" />
          </mxGeometry>
        </mxCell>
        <mxCell id="-MM3WiBiCca5OCZPj5n1-5" value="" style="endArrow=classic;html=1;rounded=0;entryX=0.5;entryY=0;entryDx=0;entryDy=0;exitX=0.75;exitY=1;exitDx=0;exitDy=0;endFill=1;strokeWidth=3;" edge="1" parent="1" source="-MM3WiBiCca5OCZPj5n1-3" target="-MM3WiBiCca5OCZPj5n1-2">
          <mxGeometry width="50" height="50" relative="1" as="geometry">
            <mxPoint x="516" y="670" as="sourcePoint" />
            <mxPoint x="566" y="620" as="targetPoint" />
          </mxGeometry>
        </mxCell>
        <mxCell id="-MM3WiBiCca5OCZPj5n1-6" value="/dev/ttyACM0" style="text;html=1;align=center;verticalAlign=middle;whiteSpace=wrap;rounded=0;" vertex="1" parent="1">
          <mxGeometry x="60" y="540" width="120" height="30" as="geometry" />
        </mxCell>
        <mxCell id="-MM3WiBiCca5OCZPj5n1-8" value="/dev/ttyUSB0" style="text;html=1;align=center;verticalAlign=middle;whiteSpace=wrap;rounded=0;" vertex="1" parent="1">
          <mxGeometry x="280" y="540" width="120" height="30" as="geometry" />
        </mxCell>
        <mxCell id="-MM3WiBiCca5OCZPj5n1-11" value="" style="endArrow=classic;html=1;rounded=0;entryX=0.25;entryY=0;entryDx=0;entryDy=0;exitX=0.5;exitY=1;exitDx=0;exitDy=0;" edge="1" parent="1" source="-MM3WiBiCca5OCZPj5n1-22" target="-MM3WiBiCca5OCZPj5n1-3">
          <mxGeometry width="50" height="50" relative="1" as="geometry">
            <mxPoint x="120" y="430" as="sourcePoint" />
            <mxPoint x="550" y="660" as="targetPoint" />
          </mxGeometry>
        </mxCell>
        <mxCell id="-MM3WiBiCca5OCZPj5n1-12" value="" style="endArrow=classic;html=1;rounded=0;entryX=0.75;entryY=0;entryDx=0;entryDy=0;exitX=0.5;exitY=1;exitDx=0;exitDy=0;" edge="1" parent="1" source="-MM3WiBiCca5OCZPj5n1-26" target="-MM3WiBiCca5OCZPj5n1-3">
          <mxGeometry width="50" height="50" relative="1" as="geometry">
            <mxPoint x="320" y="430" as="sourcePoint" />
            <mxPoint x="550" y="660" as="targetPoint" />
          </mxGeometry>
        </mxCell>
        <mxCell id="-MM3WiBiCca5OCZPj5n1-13" value="arm_keyboard.py" style="rounded=0;whiteSpace=wrap;html=1;fillColor=#1ba1e2;fontColor=#ffffff;strokeColor=#006EAF;" vertex="1" parent="1">
          <mxGeometry x="160" y="180" width="120" height="60" as="geometry" />
        </mxCell>
        <mxCell id="-MM3WiBiCca5OCZPj5n1-14" value="" style="endArrow=classic;html=1;rounded=0;entryX=0.5;entryY=0;entryDx=0;entryDy=0;exitX=0.25;exitY=1;exitDx=0;exitDy=0;" edge="1" parent="1" source="-MM3WiBiCca5OCZPj5n1-13">
          <mxGeometry width="50" height="50" relative="1" as="geometry">
            <mxPoint x="198.03999999999996" y="361.02" as="sourcePoint" />
            <mxPoint x="120" y="400" as="targetPoint" />
          </mxGeometry>
        </mxCell>
        <mxCell id="-MM3WiBiCca5OCZPj5n1-15" value="" style="endArrow=classic;html=1;rounded=0;exitX=0.75;exitY=1;exitDx=0;exitDy=0;entryX=0.5;entryY=0;entryDx=0;entryDy=0;" edge="1" parent="1" source="-MM3WiBiCca5OCZPj5n1-13" target="-MM3WiBiCca5OCZPj5n1-26">
          <mxGeometry width="50" height="50" relative="1" as="geometry">
            <mxPoint x="250" y="360" as="sourcePoint" />
            <mxPoint x="320" y="400" as="targetPoint" />
          </mxGeometry>
        </mxCell>
        <mxCell id="-MM3WiBiCca5OCZPj5n1-16" value="arm_reader.py" style="rounded=0;whiteSpace=wrap;html=1;fillColor=#1ba1e2;fontColor=#ffffff;strokeColor=#006EAF;" vertex="1" parent="1">
          <mxGeometry x="160" y="660" width="120" height="60" as="geometry" />
        </mxCell>
        <mxCell id="-MM3WiBiCca5OCZPj5n1-17" value="" style="endArrow=classic;html=1;rounded=0;entryX=0.25;entryY=0;entryDx=0;entryDy=0;exitX=0.5;exitY=1;exitDx=0;exitDy=0;endFill=1;strokeWidth=3;" edge="1" parent="1" source="-MM3WiBiCca5OCZPj5n1-1" target="-MM3WiBiCca5OCZPj5n1-16">
          <mxGeometry width="50" height="50" relative="1" as="geometry">
            <mxPoint x="770" y="610" as="sourcePoint" />
            <mxPoint x="820" y="560" as="targetPoint" />
          </mxGeometry>
        </mxCell>
        <mxCell id="-MM3WiBiCca5OCZPj5n1-18" value="" style="endArrow=classic;html=1;rounded=0;entryX=0.75;entryY=0;entryDx=0;entryDy=0;exitX=0.5;exitY=1;exitDx=0;exitDy=0;endFill=1;strokeWidth=3;" edge="1" parent="1" source="-MM3WiBiCca5OCZPj5n1-2" target="-MM3WiBiCca5OCZPj5n1-16">
          <mxGeometry width="50" height="50" relative="1" as="geometry">
            <mxPoint x="770" y="610" as="sourcePoint" />
            <mxPoint x="820" y="560" as="targetPoint" />
          </mxGeometry>
        </mxCell>
        <mxCell id="-MM3WiBiCca5OCZPj5n1-19" value="/dev/ttyACM0" style="text;html=1;align=center;verticalAlign=middle;whiteSpace=wrap;rounded=0;" vertex="1" parent="1">
          <mxGeometry x="60" y="630" width="120" height="30" as="geometry" />
        </mxCell>
        <mxCell id="-MM3WiBiCca5OCZPj5n1-20" value="/dev/ttyUSB0" style="text;html=1;align=center;verticalAlign=middle;whiteSpace=wrap;rounded=0;" vertex="1" parent="1">
          <mxGeometry x="280" y="630" width="120" height="30" as="geometry" />
        </mxCell>
        <mxCell id="-MM3WiBiCca5OCZPj5n1-25" value="" style="endArrow=classic;html=1;rounded=0;entryX=0.25;entryY=0;entryDx=0;entryDy=0;exitX=0.5;exitY=1;exitDx=0;exitDy=0;" edge="1" parent="1" target="-MM3WiBiCca5OCZPj5n1-22">
          <mxGeometry width="50" height="50" relative="1" as="geometry">
            <mxPoint x="120" y="430" as="sourcePoint" />
            <mxPoint x="190" y="470" as="targetPoint" />
          </mxGeometry>
        </mxCell>
        <mxCell id="-MM3WiBiCca5OCZPj5n1-22" value="/joint_trajectory_point_left" style="rhombus;whiteSpace=wrap;html=1;fillColor=#d80073;fontColor=#ffffff;strokeColor=#A50040;" vertex="1" parent="1">
          <mxGeometry x="30" y="400" width="180" height="40" as="geometry" />
        </mxCell>
        <mxCell id="-MM3WiBiCca5OCZPj5n1-26" value="/joint_trajectory_point_right" style="rhombus;whiteSpace=wrap;html=1;fillColor=#d80073;fontColor=#ffffff;strokeColor=#A50040;" vertex="1" parent="1">
          <mxGeometry x="230" y="400" width="180" height="40" as="geometry" />
        </mxCell>
        <mxCell id="-MM3WiBiCca5OCZPj5n1-27" value="/left_joint_states" style="rhombus;whiteSpace=wrap;html=1;fillColor=#d80073;fontColor=#ffffff;strokeColor=#A50040;" vertex="1" parent="1">
          <mxGeometry x="30" y="760" width="180" height="40" as="geometry" />
        </mxCell>
        <mxCell id="-MM3WiBiCca5OCZPj5n1-28" value="/right_joint_states" style="rhombus;whiteSpace=wrap;html=1;fillColor=#d80073;fontColor=#ffffff;strokeColor=#A50040;" vertex="1" parent="1">
          <mxGeometry x="230" y="760" width="180" height="40" as="geometry" />
        </mxCell>
        <mxCell id="-MM3WiBiCca5OCZPj5n1-29" value="" style="endArrow=classic;html=1;rounded=0;exitX=0.75;exitY=1;exitDx=0;exitDy=0;entryX=0.5;entryY=0;entryDx=0;entryDy=0;endFill=1;strokeWidth=3;" edge="1" parent="1" source="-MM3WiBiCca5OCZPj5n1-16" target="-MM3WiBiCca5OCZPj5n1-28">
          <mxGeometry width="50" height="50" relative="1" as="geometry">
            <mxPoint x="290" y="680" as="sourcePoint" />
            <mxPoint x="360" y="720" as="targetPoint" />
          </mxGeometry>
        </mxCell>
        <mxCell id="-MM3WiBiCca5OCZPj5n1-30" value="" style="endArrow=classic;html=1;rounded=0;exitX=0.25;exitY=1;exitDx=0;exitDy=0;entryX=0.5;entryY=0;entryDx=0;entryDy=0;endFill=1;strokeWidth=3;" edge="1" parent="1" source="-MM3WiBiCca5OCZPj5n1-16" target="-MM3WiBiCca5OCZPj5n1-27">
          <mxGeometry width="50" height="50" relative="1" as="geometry">
            <mxPoint x="380" y="710" as="sourcePoint" />
            <mxPoint x="430" y="660" as="targetPoint" />
          </mxGeometry>
        </mxCell>
        <mxCell id="-MM3WiBiCca5OCZPj5n1-31" value="websocket.py" style="rounded=0;whiteSpace=wrap;html=1;fillColor=#1ba1e2;fontColor=#ffffff;strokeColor=#006EAF;" vertex="1" parent="1">
          <mxGeometry x="440" y="175" width="120" height="60" as="geometry" />
        </mxCell>
        <mxCell id="-MM3WiBiCca5OCZPj5n1-32" value="" style="endArrow=classic;html=1;rounded=0;entryX=1;entryY=0;entryDx=0;entryDy=0;exitX=0.25;exitY=1;exitDx=0;exitDy=0;dashed=1;" edge="1" parent="1" source="-MM3WiBiCca5OCZPj5n1-31" target="-MM3WiBiCca5OCZPj5n1-22">
          <mxGeometry width="50" height="50" relative="1" as="geometry">
            <mxPoint x="380" y="490" as="sourcePoint" />
            <mxPoint x="430" y="440" as="targetPoint" />
          </mxGeometry>
        </mxCell>
        <mxCell id="-MM3WiBiCca5OCZPj5n1-33" value="" style="endArrow=classic;html=1;rounded=0;entryX=1;entryY=0;entryDx=0;entryDy=0;exitX=0.75;exitY=1;exitDx=0;exitDy=0;dashed=1;" edge="1" parent="1" source="-MM3WiBiCca5OCZPj5n1-31" target="-MM3WiBiCca5OCZPj5n1-26">
          <mxGeometry width="50" height="50" relative="1" as="geometry">
            <mxPoint x="380" y="490" as="sourcePoint" />
            <mxPoint x="430" y="440" as="targetPoint" />
          </mxGeometry>
        </mxCell>
        <mxCell id="-MM3WiBiCca5OCZPj5n1-34" value="pose.py" style="rounded=0;whiteSpace=wrap;html=1;fillColor=#1ba1e2;fontColor=#ffffff;strokeColor=#006EAF;" vertex="1" parent="1">
          <mxGeometry x="590" y="175" width="120" height="60" as="geometry" />
        </mxCell>
        <mxCell id="-MM3WiBiCca5OCZPj5n1-35" value="/dev/video0" style="rounded=0;whiteSpace=wrap;html=1;fillColor=#f5f5f5;fontColor=#333333;strokeColor=#666666;" vertex="1" parent="1">
          <mxGeometry x="570" y="315" width="160" height="40" as="geometry" />
        </mxCell>
        <mxCell id="-MM3WiBiCca5OCZPj5n1-36" value="" style="endArrow=classic;html=1;rounded=0;entryX=0.5;entryY=1;entryDx=0;entryDy=0;exitX=0.5;exitY=0;exitDx=0;exitDy=0;endFill=1;strokeWidth=3;" edge="1" parent="1" source="-MM3WiBiCca5OCZPj5n1-35" target="-MM3WiBiCca5OCZPj5n1-34">
          <mxGeometry width="50" height="50" relative="1" as="geometry">
            <mxPoint x="340" y="485" as="sourcePoint" />
            <mxPoint x="390" y="435" as="targetPoint" />
          </mxGeometry>
        </mxCell>
        <mxCell id="-MM3WiBiCca5OCZPj5n1-37" value="main.py" style="rounded=0;whiteSpace=wrap;html=1;fillColor=#1ba1e2;fontColor=#ffffff;strokeColor=#006EAF;" vertex="1" parent="1">
          <mxGeometry x="520" y="65" width="120" height="60" as="geometry" />
        </mxCell>
        <mxCell id="-MM3WiBiCca5OCZPj5n1-38" value="" style="endArrow=async;html=1;rounded=0;entryX=0.75;entryY=1;entryDx=0;entryDy=0;exitX=0.5;exitY=0;exitDx=0;exitDy=0;endFill=1;" edge="1" parent="1" source="-MM3WiBiCca5OCZPj5n1-34" target="-MM3WiBiCca5OCZPj5n1-37">
          <mxGeometry width="50" height="50" relative="1" as="geometry">
            <mxPoint x="340" y="485" as="sourcePoint" />
            <mxPoint x="390" y="435" as="targetPoint" />
          </mxGeometry>
        </mxCell>
        <mxCell id="-MM3WiBiCca5OCZPj5n1-39" value="" style="endArrow=async;html=1;rounded=0;entryX=0.5;entryY=0;entryDx=0;entryDy=0;exitX=0.25;exitY=1;exitDx=0;exitDy=0;endFill=1;" edge="1" parent="1" source="-MM3WiBiCca5OCZPj5n1-37" target="-MM3WiBiCca5OCZPj5n1-31">
          <mxGeometry width="50" height="50" relative="1" as="geometry">
            <mxPoint x="340" y="485" as="sourcePoint" />
            <mxPoint x="390" y="435" as="targetPoint" />
          </mxGeometry>
        </mxCell>
        <mxCell id="-MM3WiBiCca5OCZPj5n1-40" value="positions,&amp;nbsp;positions_right" style="text;html=1;align=center;verticalAlign=middle;whiteSpace=wrap;rounded=0;" vertex="1" parent="1">
          <mxGeometry x="510" y="135" width="140" height="30" as="geometry" />
        </mxCell>
        <mxCell id="-MM3WiBiCca5OCZPj5n1-44" value="robot_control" style="text;html=1;align=center;verticalAlign=middle;whiteSpace=wrap;rounded=0;fontSize=20;" vertex="1" parent="1">
          <mxGeometry x="155" y="120" width="130" height="30" as="geometry" />
        </mxCell>
        <mxCell id="-MM3WiBiCca5OCZPj5n1-45" value="mediapipe_robot_arm" style="text;html=1;align=center;verticalAlign=middle;whiteSpace=wrap;rounded=0;fontSize=20;" vertex="1" parent="1">
          <mxGeometry x="490" y="10" width="200" height="30" as="geometry" />
        </mxCell>
        <mxCell id="-MM3WiBiCca5OCZPj5n1-46" value="Pass through ROS bridge&lt;div&gt;&lt;span style=&quot;background-color: initial;&quot;&gt;Pass through ROS node&lt;/span&gt;&lt;/div&gt;&lt;div style=&quot;&quot;&gt;&lt;span style=&quot;background-color: initial;&quot;&gt;Port/Hardware direct connection&lt;/span&gt;&lt;/div&gt;&lt;div style=&quot;&quot;&gt;Pass through parameters&lt;/div&gt;" style="text;html=1;align=left;verticalAlign=middle;whiteSpace=wrap;rounded=0;" vertex="1" parent="1">
          <mxGeometry x="560" y="440" width="180" height="110" as="geometry" />
        </mxCell>
        <mxCell id="-MM3WiBiCca5OCZPj5n1-47" value="" style="endArrow=classic;html=1;rounded=0;" edge="1" parent="1">
          <mxGeometry width="50" height="50" relative="1" as="geometry">
            <mxPoint x="500" y="474" as="sourcePoint" />
            <mxPoint x="550" y="474" as="targetPoint" />
          </mxGeometry>
        </mxCell>
        <mxCell id="-MM3WiBiCca5OCZPj5n1-48" value="" style="endArrow=classic;html=1;rounded=0;dashed=1;" edge="1" parent="1">
          <mxGeometry width="50" height="50" relative="1" as="geometry">
            <mxPoint x="500" y="488.71" as="sourcePoint" />
            <mxPoint x="550" y="488.71" as="targetPoint" />
          </mxGeometry>
        </mxCell>
        <mxCell id="-MM3WiBiCca5OCZPj5n1-49" value="" style="endArrow=classic;html=1;rounded=0;strokeWidth=3;" edge="1" parent="1">
          <mxGeometry width="50" height="50" relative="1" as="geometry">
            <mxPoint x="500" y="503" as="sourcePoint" />
            <mxPoint x="550" y="503" as="targetPoint" />
          </mxGeometry>
        </mxCell>
        <mxCell id="-MM3WiBiCca5OCZPj5n1-50" value="" style="endArrow=async;html=1;rounded=0;endFill=1;" edge="1" parent="1">
          <mxGeometry width="50" height="50" relative="1" as="geometry">
            <mxPoint x="500" y="518" as="sourcePoint" />
            <mxPoint x="550" y="518" as="targetPoint" />
          </mxGeometry>
        </mxCell>
      </root>
    </mxGraphModel>
  </diagram>
</mxfile>
